<svg xmlns="http://www.w3.org/2000/svg" viewBox="0 0 256 256" width="256" height="256">
  <defs>
    <radialGradient id="bg" cx="50%" cy="32%" r="80%">
      <stop offset="0%" stop-color="#6a49c8"/>
      <stop offset="62%" stop-color="#2e1c66"/>
      <stop offset="100%" stop-color="#100826"/>
    </radialGradient>
    <linearGradient id="gold" x1="0" y1="0" x2="0.15" y2="1">
      <stop offset="0%" stop-color="#fff6d8"/>
      <stop offset="28%" stop-color="#f7dc73"/>
      <stop offset="55%" stop-color="#e2ad33"/>
      <stop offset="100%" stop-color="#8a5f16"/>
    </linearGradient>
    <radialGradient id="halo" cx="50%" cy="44%" r="55%">
      <stop offset="0%" stop-color="#ffe9a8" stop-opacity="0.55"/>
      <stop offset="55%" stop-color="#ffcf5e" stop-opacity="0.15"/>
      <stop offset="100%" stop-color="#ffcf5e" stop-opacity="0"/>
    </radialGradient>
    <linearGradient id="spec" x1="0" y1="0" x2="0" y2="1">
      <stop offset="0%" stop-color="#ffffff" stop-opacity="0.42"/>
      <stop offset="100%" stop-color="#ffffff" stop-opacity="0"/>
    </linearGradient>
    <radialGradient id="gem" cx="40%" cy="35%" r="70%">
      <stop offset="0%" stop-color="#ffd0e6"/>
      <stop offset="55%" stop-color="#c0399a"/>
      <stop offset="100%" stop-color="#5a1550"/>
    </radialGradient>
    <filter id="glow" x="-40%" y="-40%" width="180%" height="180%">
      <feDropShadow dx="0" dy="0" stdDeviation="3.8" flood-color="#ffe08a" flood-opacity="0.95"/>
    </filter>
  </defs>

  <rect x="14" y="14" width="228" height="228" rx="48" fill="url(#bg)" stroke="url(#gold)" stroke-width="8"/>

  <g opacity="0.12" fill="url(#gold)">
    <path d="M124 128 L128 6 L132 128 Z"/>
    <path d="M124 128 L128 6 L132 128 Z" transform="rotate(30 128 128)"/>
    <path d="M124 128 L128 6 L132 128 Z" transform="rotate(60 128 128)"/>
    <path d="M124 128 L128 6 L132 128 Z" transform="rotate(90 128 128)"/>
    <path d="M124 128 L128 6 L132 128 Z" transform="rotate(120 128 128)"/>
    <path d="M124 128 L128 6 L132 128 Z" transform="rotate(150 128 128)"/>
    <path d="M124 128 L128 6 L132 128 Z" transform="rotate(180 128 128)"/>
    <path d="M124 128 L128 6 L132 128 Z" transform="rotate(210 128 128)"/>
    <path d="M124 128 L128 6 L132 128 Z" transform="rotate(240 128 128)"/>
    <path d="M124 128 L128 6 L132 128 Z" transform="rotate(270 128 128)"/>
    <path d="M124 128 L128 6 L132 128 Z" transform="rotate(300 128 128)"/>
    <path d="M124 128 L128 6 L132 128 Z" transform="rotate(330 128 128)"/>
  </g>

  <rect x="26" y="26" width="204" height="204" rx="40" fill="none" stroke="url(#gold)" stroke-width="3.5"/>
  <rect x="33" y="33" width="190" height="190" rx="34" fill="none" stroke="#ffe9a8" stroke-width="1.4" opacity="0.4"/>
  <rect x="34" y="30" width="188" height="80" rx="30" fill="url(#spec)"/>
  <ellipse cx="128" cy="120" rx="92" ry="94" fill="url(#halo)"/>

  <g fill="#ffe9a8" opacity="0.95">
    <path d="M60 74 l4 12 12 4 -12 4 -4 12 -4 -12 -12 -4 12 -4 z"/>
    <path d="M196 86 l3 9 9 3 -9 3 -3 9 -3 -9 -9 -3 9 -3 z"/>
  </g>

  <!-- ankh bevel copy -->
  <g transform="translate(0,3)" opacity="0.5" fill="#4a3208">
    <rect x="118" y="104" width="20" height="98" rx="10"/>
    <rect x="90" y="122" width="76" height="20" rx="10"/>
  </g>
  <g filter="url(#glow)">
    <rect x="118" y="104" width="20" height="98" rx="10" fill="url(#gold)"/>
    <rect x="90" y="122" width="76" height="20" rx="10" fill="url(#gold)"/>
    <ellipse cx="128" cy="90" rx="30" ry="36" fill="none" stroke="url(#gold)" stroke-width="20"/>
  </g>
  <ellipse cx="128" cy="90" rx="20" ry="26" fill="#211149"/>
  <rect x="122" y="108" width="6" height="88" rx="3" fill="#ffffff" opacity="0.35"/>

  <g stroke="url(#gold)" stroke-width="2">
    <circle cx="128" cy="30" r="8" fill="url(#gem)"/>
    <circle cx="40" cy="128" r="6" fill="url(#gem)"/>
    <circle cx="216" cy="128" r="6" fill="url(#gem)"/>
  </g>
</svg>
